<?xml version="1.0" encoding="utf-8"?>
<!-- Generator: Adobe Illustrator 27.0.0, SVG Export Plug-In . SVG Version: 6.00 Build 0)  -->
<svg version="1.1" id="Layer_1" xmlns="http://www.w3.org/2000/svg" xmlns:xlink="http://www.w3.org/1999/xlink" x="0px" y="0px"
	 viewBox="0 0 407 404" style="enable-background:new 0 0 407 404;" xml:space="preserve">
<style type="text/css">
	.st0{fill:#FFFFFF;}
	.st1{fill:none;stroke:#FFFFFF;stroke-width:6;stroke-miterlimit:10;}
	.st2{fill:none;stroke:#FFFFFF;stroke-width:4;stroke-miterlimit:10;}
	.st3{fill:none;stroke:#FFFFFF;stroke-width:12;stroke-miterlimit:10;}
</style>
<g>
	<path class="st0" d="M89.69,142.1v-73.4H60.67V55.3h72.78v13.39h-28.89v73.4H89.69z"/>
	<path class="st0" d="M138.54,142.1V55.3l14.63,0v28.15c4.46-5.46,12.03-9.05,20.58-9.05c14.01,0,23.19,9.42,23.19,24.18v43.52
		h-14.63V99.32c0-7.32-4.84-12.15-12.65-12.15c-9.92,0-16.37,6.57-16.49,15.13v39.8H138.54z"/>
	<path class="st0" d="M201.29,109.49c0-21.7,14.26-35.09,32.61-35.09c18.6,0,31,13.02,31.37,34.35v3.47h-49.35
		c0.99,11.53,8.18,19.34,19.34,19.34c7.56,0,13.27-3.72,15.5-10.29h14.26c-3.35,14.14-14.38,22.69-29.88,22.69
		C215.05,143.96,201.29,129.58,201.29,109.49z M250.14,101.92c-1.86-9.42-7.69-15.13-16.24-15.13c-8.68,0-15.13,5.7-17.36,15.13
		H250.14z"/>
	<path class="st0" d="M60.13,245.1V158.3h44.02c17.73,0,28.52,11.78,28.52,27.28c0,17.48-12.15,28.15-28.52,28.15H75.01v31.37H60.13
		z M75.01,200.34h28.39c9.3,0,14.14-6.94,14.14-14.76c0-8.18-5.58-13.89-14.14-13.89H75.01V200.34z"/>
	<path class="st0" d="M243.02,245.1v-65.72h11.78l1.74,12.9c4.22-8.93,11.9-13.64,22.81-13.64h2.48v14.26h-2.48
		c-13.64,0-21.7,7.32-21.7,19.71v32.49H243.02z"/>
	<path class="st0" d="M288.4,245.1v-65.72h11.78l1.24,9.67c4.09-6.82,12.4-11.66,22.19-11.66c14.01,0,23.19,9.42,23.19,24.18v43.52
		h-14.63v-42.78c0-7.32-4.84-12.15-13.02-12.15c-9.55,0-16,6.57-16.12,15.13v39.8H288.4z"/>
	<path class="st0" d="M60.13,348.1V261.3h41.17c15.75,0,26.78,8.93,26.78,21.95c0,9.92-7.19,17.61-17.85,20.21
		c12.03,1.86,19.71,10.04,19.71,21.08c0,13.89-11.41,23.56-27.9,23.56H60.13z M74.88,297.51h25.91c7.44,0,12.52-4.96,12.52-11.9
		c0-6.45-4.71-11.04-11.41-11.04H74.88V297.51z M74.88,334.71h27.9c7.44,0,12.03-5.33,12.03-12.28c0-7.07-5.46-12.03-13.39-12.03
		H74.88V334.71z"/>
	<path class="st0" d="M139.24,348.1v-65.72h11.78l1.74,12.9c4.22-8.93,11.9-13.64,22.81-13.64h2.48v14.26h-2.48
		c-13.64,0-21.7,7.32-21.7,19.71v32.49H139.24z"/>
	<path class="st0" d="M180.28,329.87c0.12-15.38,15.38-18.6,28.15-20.09c9.92-1.12,17.23-1.49,17.36-6.7
		c-0.12-6.45-5.08-10.66-13.52-10.66c-8.68,0-14.88,4.71-15.75,11.53h-14.76c1.36-13.89,13.76-23.56,30.75-23.56
		c17.73,0,27.53,9.67,27.53,23.68v29.76c0,1.86,0.99,2.85,3.22,2.85h3.6v11.41h-6.94c-6.7,0-10.79-2.73-11.9-7.69
		c-0.25-0.62-0.5-1.49-0.62-2.23c-3.84,7.07-11.04,11.28-22.19,11.28C190.08,349.46,180.16,342.15,180.28,329.87z M225.79,323.42
		v-9.18c-2.48,3.84-8.8,4.71-15.75,5.58c-8.18,0.99-15,2.11-15,9.05c0,5.7,4.59,9.05,13.14,9.05
		C218.23,337.93,225.79,332.23,225.79,323.42z"/>
	<path class="st0" d="M251.33,264.03c0-5.33,4.09-9.42,9.42-9.42c5.46,0,9.42,4.09,9.42,9.42s-3.97,9.55-9.42,9.55
		C255.43,273.58,251.33,269.36,251.33,264.03z M253.44,348.1v-65.72h14.63v65.72H253.44z"/>
	<path class="st0" d="M277.5,348.1v-65.72h11.78l1.24,9.67c4.09-6.82,12.4-11.66,22.19-11.66c14.01,0,23.19,9.42,23.19,24.18v43.52
		h-14.63v-42.78c0-7.32-4.84-12.15-13.02-12.15c-9.55,0-16,6.57-16.12,15.13v39.8H277.5z"/>
</g>
<path class="st1" d="M218.37,241.57c0,0,15.86-8.29,12.97-16.94c-2.88-8.65-2.68-7.03-2.68-7.03s3.4-5.23,1.96-8.83
	s-6.49-10.45-9.37-11.89c-2.88-1.44-2.52-12.61-14.05-14.05c0,0-0.41,0-2.55,0c-2.14,0-2.14,0-2.14,0s-5.05-8.65-11.17-6.49
	c-6.13,2.16-6.85,2.52-7.93,3.6c0,0-11.53-6.85-16.94,1.8c0,0-1.8,3.24-3.24,4.32c-1.44,1.08-7.57,0.72-9.37,2.88
	c-1.8,2.16-3.6,6.49-5.41,8.65c-1.8,2.16-7.93,6.49-9.01,8.65c-1.08,2.16-2.52,5.41-1.8,7.93c0.72,2.52,1.48,3.42,1.48,3.42
	s-4.75,7.18-1.67,11.07c3.08,3.89,6.68,8.21,8.12,9.3c1.44,1.08,7.21,1.44,7.93,0.72c0.72-0.72,1.26,1.26,4.14,1.26
	c2.88,0,5.77-1.44,5.77-1.44s4.68,2.88,6.49,1.44c1.8-1.44,12.61,5.41,18.38-0.72l1.8-2.16c0,0,6.13,6.85,9.01,12.25
	c2.88,5.41,5.05,10.45,6.85,10.81c1.8,0.36,5.77-1.44,5.77-2.52s0-6.49,0.36-7.93S214.58,243.56,218.37,241.57z"/>
<path class="st2" d="M175.66,192.38c0,0-12.25,7.93-10.81,10.45c1.44,2.52,4.32,5.41,4.32,5.41s-7.21-10.09-15.14-1.08
	c-7.93,9.01-6.41,10.81-14.92,10.45"/>
<path class="st2" d="M183.41,179.95c0,0,1.62,0.37,2.88,8.02c1.26,7.65-3.42,13.06-4.5,15.22c-1.08,2.16-4.68,8.92-1.98,11.85
	c2.7,2.93,13.87,7.61,12.07,14.82s-3.4,11.55-7.83,11.72"/>
<path class="st2" d="M202.51,182.83c0,0-12.43,9.19-6.31,17.12c6.13,7.93,10.81,7.57,13.33,9.73c2.52,2.16,6.13,7.21,6.13,10.09"/>
<path class="st2" d="M218.29,205.02c0,0,2.12-5.52,1.19-10.7"/>
<path class="st2" d="M192.08,210.77c0,0,5.93,1.44,8.45,10.45c1.22,4.35,2.61,7.28,3.71,9.13c1.19,1.99,2.05,2.76,2.05,2.76
	l12.07,8.47"/>
<line class="st2" x1="191.91" y1="230.85" x2="204.28" y2="231.33"/>
<path class="st2" d="M148.64,224.46c0,0,4.87,3.13,5.14,5.89c0.27,2.76-0.27,8.34-0.27,8.34"/>
<path class="st2" d="M166.74,221.24c0,0-0.67,5.2,1.42,9.61s3.5,8.52,3.5,8.52"/>
<rect x="22.93" y="22" class="st3" width="361.07" height="358.5"/>
</svg>
